<svg width="300" height="300" viewBox="0 0 300 300" fill="none" xmlns="http://www.w3.org/2000/svg">
<rect width="300" height="300" fill="white"/>
<path d="M192.672 229.811C189.477 229.811 186.717 228.795 184.394 226.762C182.215 224.583 181.126 221.751 181.126 218.265C181.126 214.925 182.215 212.238 184.394 210.205C186.717 208.027 189.477 206.937 192.672 206.937C195.577 206.937 198.191 208.027 200.514 210.205C202.838 212.238 204 214.925 204 218.265C204 221.751 202.838 224.583 200.514 226.762C198.191 228.795 195.577 229.811 192.672 229.811Z" fill="black"/>
<path d="M98.2677 227.85C96.0892 227.85 95 227.052 95 225.454C95 224.147 95.944 223.276 97.832 222.84L102.843 221.969C105.892 221.388 107.853 220.589 108.724 219.572C109.741 218.556 110.249 216.522 110.249 213.473V85.378C110.249 82.3281 109.741 80.2948 108.724 79.2782C107.853 78.2616 105.892 77.4628 102.843 76.8819L97.832 76.0105C95.944 75.5748 95 74.7034 95 73.3963C95 71.7988 96.0892 71 98.2677 71H168.415C171.755 71 173.57 72.6702 173.861 76.0105L175.604 112.173C175.894 114.642 174.95 115.877 172.772 115.877C171.029 115.877 170.012 114.933 169.722 113.045L168.633 105.856C167.471 98.3036 165.437 92.4217 162.533 88.21C159.628 83.9983 156.36 81.021 152.73 79.2782C149.099 77.3902 145.613 76.4462 142.273 76.4462C135.883 76.4462 131.526 77.4628 129.202 79.4961C126.878 81.5293 125.717 84.6518 125.717 88.8635V140.276C125.717 142.309 126.733 143.326 128.766 143.326H136.391C142.781 143.326 146.703 139.913 148.155 133.087L150.551 122.194C150.987 120.306 152.076 119.362 153.819 119.362C155.562 119.362 156.433 120.597 156.433 123.066V172.081C156.433 174.55 155.562 175.785 153.819 175.785C152.076 175.785 150.987 174.841 150.551 172.953L148.155 162.278C147.138 157.195 145.686 153.855 143.798 152.257C142.055 150.66 139.514 149.861 136.173 149.861H128.766C126.733 149.861 125.717 150.878 125.717 152.911V212.383C125.717 215.433 126.152 217.612 127.024 218.919C128.04 220.081 130.074 220.879 133.123 221.315L143.362 222.84C144.96 223.13 145.759 223.929 145.759 225.236C145.759 226.979 144.669 227.85 142.491 227.85H98.2677Z" fill="black"/>
</svg>
